<svg width="101" height="101" viewBox="0 0 101 101" fill="none" xmlns="http://www.w3.org/2000/svg">
<path d="M100.6 50.3L100.4 53.7L100.3 55.4L100 57.1C99.8 58.2 99.7 59.4 99.5 60.5L98.6 63.8L97.2 63.4L98 60.2C98.2 59.1 98.3 58 98.5 56.9L98.7 55.3L98.8 53.6L99 50.3H100.6Z" fill="#010101"/>
<path d="M87.2 60.7L87.8 58.1L88.2 55.5L88.4 54.3L88.5 52.9L88.6 50.3H90.1L90 53L89.9 54.4L89.7 55.8L89.3 58.4L88.6 61.1L87.2 60.7Z" fill="#010101"/>
<path d="M89.9 54.3999L90 51.7L94.5 51.8L94.4 54.8999L89.9 54.3999Z" fill="#010101"/>
<path d="M95.8999 55C95.0999 54.9 94.4 54.2 94.5 53.3C94.5 52.5 95.1999 51.8 96.0999 51.8C96.9999 51.8 97.6 52.6 97.5 53.5C97.4 54.4 96.6999 55.1 95.8999 55Z" fill="#010101"/>
<path d="M98.3 58.6C98.2 59.1 98.1 59.7 98 60.2L97.6 61.8L93.2 60.7L93.6 59.2C93.7 58.7 93.8 58.2 93.8 57.7L98.3 58.6Z" fill="#010101"/>
<path d="M92.3999 57.6C93.1999 57.7 93.7999 58.5 93.5999 59.3C93.3999 60.1 92.6 60.6 91.8 60.4C91 60.2 90.4999 59.4 90.6999 58.7C90.8999 58 91.5999 57.5 92.3999 57.6Z" fill="#010101"/>
<path d="M98.7 63.9C98.5 64.5 98.4 65 98.2 65.6L97.6 67.2C97.2 68.3 96.9 69.4 96.4 70.4C95.4 72.5 94.5 74.6 93.2 76.5L91.9 75.7C93.1 73.8 94 71.8 95 69.8C95.5 68.8 95.8 67.7 96.2 66.7L96.8 65.1C97 64.6 97.1 64 97.2 63.5L98.7 63.9Z" fill="#010101"/>
<path d="M83 70.2C84 68.7 84.7 67.1 85.4 65.6C85.8 64.8 86 64 86.3 63.2L86.8 62C87 61.6 87 61.2 87.1 60.7L88.5 61.1C88.4 61.5 88.3 62 88.1 62.4L87.6 63.7C87.3 64.5 87 65.4 86.6 66.2C85.8 67.8 85.1 69.5 84.1 71L83 70.2Z" fill="#010101"/>
<path d="M87.3 64.9L88.2 62.4L92.5 63.7L91.5 66.6L87.3 64.9Z" fill="#010101"/>
<path d="M92.9 67.1C92.1 66.8 91.7 65.9 92 65.1C92.3 64.3 93.2 63.9 93.9 64.1C94.7 64.3 95.1 65.2 94.8 66.1C94.5 67 93.6 67.4 92.9 67.1Z" fill="#010101"/>
<path d="M94.3 71.3L93.6 72.8C93.4 73.3 93.1 73.8 92.8 74.3L88.9 72.1C89.2 71.7 89.4 71.2 89.6 70.8L90.3 69.4L94.3 71.3Z" fill="#010101"/>
<path d="M88.9 68.7C89.6 69.1 90 69.9 89.6 70.7C89.3 71.5 88.3 71.7 87.6 71.3C86.9 70.9 86.7 70 87 69.3C87.3 68.6 88.2 68.3 88.9 68.7Z" fill="#010101"/>
<path d="M93.2 76.3999C92.1 78.3999 90.6 80.2 89.3 82C88.6 82.9 87.8 83.7 87 84.6L85.8 85.8999L84.5 87.1L83.5 86L84.7 84.8999L85.8 83.7C86.5 82.9 87.3 82.1 88 81.2C89.3 79.4 90.7 77.7 91.8 75.7L93.2 76.3999Z" fill="#010101"/>
<path d="M76.4 78.3L77.4 77.4L78.3 76.4C78.9 75.7 79.5 75.1 80 74.4C81 73 82.2 71.6 83 70.1L84.3 70.9C83.4 72.5 82.3 73.9 81.2 75.4C80.6 76.1 80 76.7 79.4 77.4L78.5 78.4L77.5 79.3L76.4 78.3Z" fill="#010101"/>
<path d="M82 74.3999C82.5 73.6999 83.1 73 83.6 72.2L87.3 74.7C86.8 75.6 86.1 76.3 85.5 77.2L82 74.3999Z" fill="#010101"/>
<path d="M86.7 78C86 77.5 85.9 76.5 86.4 75.9C86.9 75.2 87.8 75 88.5 75.5C89.2 76 89.4 76.9 88.8 77.6C88.4 78.3 87.4 78.5 86.7 78Z" fill="#010101"/>
<path d="M87 82.4L84.8 84.8L81.6 81.7L83.7 79.4L87 82.4Z" fill="#010101"/>
<path d="M82.5 78.4C83.1 78.9 83.2 79.9 82.6 80.5C82 81.1 81.1 81.1 80.5 80.6C79.9 80.1 79.9 79.1 80.4 78.5C81 77.9 81.9 77.9 82.5 78.4Z" fill="#010101"/>
<path d="M84.6 87.1C81.3 90.3 77.5 92.8 73.4 95L72.7 93.7C76.6 91.6 80.3 89.1 83.5 86L84.6 87.1Z" fill="#010101"/>
<path d="M67.9 84.3C70.9 82.6 73.9 80.7 76.4 78.3L77.4 79.4C74.8 82 71.7 83.9 68.6 85.7L67.9 84.3Z" fill="#010101"/>
<path d="M74.3 82L75.4 81.2C75.8 80.9 76.1 80.6 76.4 80.3L79.3 83.7C78.9 84 78.6 84.4 78.2 84.7L77 85.6L74.3 82Z" fill="#010101"/>
<path d="M77.9 86.8C77.4 86.1 77.5 85.2 78.2 84.7C78.8 84.2 79.8 84.2 80.3 84.8C80.8 85.4 80.8 86.4 80.1 87C79.4 87.6 78.4 87.5 77.9 86.8Z" fill="#010101"/>
<path d="M77 91.1L74.2 92.8L72 88.9L74.6 87.4L77 91.1Z" fill="#010101"/>
<path d="M73.8 86.1C74.3 86.8 74 87.7 73.3 88.1C72.6 88.5 71.7 88.3 71.3 87.6C70.9 86.9 71.1 86 71.8 85.6C72.4 85.2 73.3 85.4 73.8 86.1Z" fill="#010101"/>
<path d="M73.4 95L70.3 96.5C69.3 97 68.2 97.3 67.1 97.7L65.5 98.3C65 98.5 64.4 98.6 63.8 98.8L60.5 99.7001L60.2 98.2L63.4 97.4C63.9 97.3 64.5 97.1 65 97L66.6 96.4C67.6 96 68.7 95.7 69.7 95.2L72.7 93.8L73.4 95Z" fill="#010101"/>
<path d="M58.1 87.9L60.6 87.2C61 87.1 61.5 87 61.9 86.9L63.1 86.4C63.9 86.1 64.8 85.8 65.5 85.5L67.9 84.4L68.6 85.7L66.2 86.9C65.4 87.3 64.5 87.5 63.7 87.9L62.4 88.4C62 88.6 61.5 88.6 61.1 88.8L58.5 89.5L58.1 87.9Z" fill="#010101"/>
<path d="M64.9 87.4C65.8 87.1 66.6 86.7 67.4 86.3L69.3 90.4C68.4 90.8 67.5 91.3001 66.5 91.6001L64.9 87.4Z" fill="#010101"/>
<path d="M67.1 92.9C66.8 92.1 67.2 91.3 68 90.9C68.7 90.5 69.6 90.9 70 91.6C70.4 92.3 69.9999 93.3 69.1999 93.6C68.2999 94.1 67.4 93.7 67.1 92.9Z" fill="#010101"/>
<path d="M65 96.8C63.9 97.1 62.9 97.4 61.8 97.7L60.7 93.3C61.7 93 62.7 92.8 63.6 92.5L65 96.8Z" fill="#010101"/>
<path d="M63.2 91.1001C63.5 91.9001 63 92.7 62.2 92.9C61.4 93.1 60.6 92.6 60.4 91.8C60.2 91 60.7 90.2 61.4 90C62.2 89.9 63 90.4001 63.2 91.1001Z" fill="#010101"/>
<path d="M60.5 99.6C59.4 99.8 58.2 100 57.1 100.1L55.4 100.4L53.7 100.5L50.3 100.7L46.9 100.5L47 99L50.3 99.2L53.6 99L55.3 98.9L56.9 98.7C58 98.5 59.1 98.4 60.2 98.2L60.5 99.6Z" fill="#010101"/>
<path d="M47.7 88.5L50.3 88.7L52.9 88.5H54.2L55.5 88.3L58.1 87.9L58.4 89.3L55.7 89.7L54.4 89.9L53 90L50.3 90.2L47.6 90L47.7 88.5Z" fill="#010101"/>
<path d="M54.4 89.9L57.1 89.5L57.8 94L54.8 94.4L54.4 89.9Z" fill="#010101"/>
<path d="M55 95.9001C54.9 95.1001 55.5 94.3001 56.3 94.2001C57.1 94.1001 57.9 94.6001 58 95.4001C58.1 96.2001 57.4999 97.0001 56.6999 97.1001C55.7999 97.3001 55 96.7001 55 95.9001Z" fill="#010101"/>
<path d="M52 99L50.3 99.1L48.6 99L48.8 94.6H50.3H51.8L52 99Z" fill="#010101"/>
<path d="M51.7 93.1C51.7 93.9 51.1 94.6 50.2 94.7C49.4 94.7 48.7 94 48.7 93.1C48.7 92.3 49.4 91.6 50.2 91.7C51.1 91.6 51.7 92.2 51.7 93.1Z" fill="#010101"/>
<path d="M46.9 100.5L45.2 100.4L43.5 100.1C42.4 99.9 41.2 99.8 40.1 99.6L36.8 98.7C36.2 98.5 35.7 98.4 35.1 98.2L33.5 97.6L34 96.2L35.6 96.8C36.1 97 36.7 97.1 37.2 97.2L40.4 98C41.5 98.2 42.6 98.3 43.7 98.5L45.3 98.7L47 98.8L46.9 100.5Z" fill="#010101"/>
<path d="M37.5 86.4L38.7 86.9C39.1 87.1 39.5 87.1 40 87.2L42.5 87.9L45.1 88.3L46.4 88.5L47.7 88.6L47.6 90.1L46.2 90L44.9 89.8L42.2 89.4L39.6 88.7C39.2 88.6 38.7 88.5 38.3 88.3L37 87.8L37.5 86.4Z" fill="#010101"/>
<path d="M43.5 89.5L46.2 89.9L45.8 94.4L42.8 94L43.5 89.5Z" fill="#010101"/>
<path d="M42.5 95.4C42.6 94.6 43.3999 94 44.1999 94.2C44.9999 94.3 45.6 95.1 45.5 95.9C45.4 96.7 44.6 97.3 43.8 97.1C43 97 42.4 96.2 42.5 95.4Z" fill="#010101"/>
<path d="M38.7 97.7C37.6 97.4 36.5 97.2 35.5 96.8L36.9 92.5C37.9 92.8 38.8 93 39.8 93.3L38.7 97.7Z" fill="#010101"/>
<path d="M40.1999 91.9001C39.9999 92.7001 39.2 93.2001 38.4 93.0001C37.6 92.8001 37.1 92.0001 37.4 91.2001C37.6 90.4001 38.4999 90.0001 39.1999 90.1001C39.8999 90.3001 40.2999 91.1001 40.1999 91.9001Z" fill="#010101"/>
<path d="M33.5 97.7C29.1 96.2 25.1 93.9999 21.3 91.3999L22.2 90.2C25.9 92.7 29.8 94.9 34 96.3L33.5 97.7Z" fill="#010101"/>
<path d="M28.2 81.6C31.1 83.6 34.1 85.3 37.5 86.4L37 87.8C33.6 86.7 30.4 84.9 27.4 82.8L28.2 81.6Z" fill="#010101"/>
<path d="M33.2 86.3C34 86.7 34.8 87.1 35.7 87.4L34.1 91.6C33.1 91.3 32.2 90.8 31.3 90.4L33.2 86.3Z" fill="#010101"/>
<path d="M30.6 91.7C31 91 31.9 90.6 32.6 91C33.3 91.4 33.8 92.2 33.5 93C33.2 93.8 32.3 94.2 31.5 93.8C30.6 93.3 30.3 92.4 30.6 91.7Z" fill="#010101"/>
<path d="M26.4 92.8L23.5 91.1L26 87.4L28.6 88.9L26.4 92.8Z" fill="#010101"/>
<path d="M29.3 87.6C28.9 88.3 28 88.6 27.3 88.1C26.6 87.7 26.4 86.8 26.8 86.1C27.3 85.4 28.2 85.2 28.8 85.6C29.5 86 29.7 86.9 29.3 87.6Z" fill="#010101"/>
<path d="M21.3 91.4L18.6 89.3C17.7 88.6 16.9 87.8 16 87L14.7 85.8L13.5 84.5C12.7 83.6 11.9 82.8 11.2 81.9L12.4 81C13.1 81.9 13.9 82.7 14.6 83.5L15.7 84.7L16.9 85.8C17.7 86.5 18.5 87.3 19.4 88L22.1 90L21.3 91.4Z" fill="#010101"/>
<path d="M20.6 74.5C21.2 75.2 21.8 75.8 22.3 76.5L23.2 77.5L24.2 78.4C24.9 79 25.5 79.6 26.2 80.1L28.3 81.7L27.4 82.9L25.2 81.3C24.5 80.7 23.9 80.1 23.2 79.5L22.2 78.6L21.3 77.6C20.7 76.9 20.1 76.3 19.5 75.6L20.6 74.5Z" fill="#010101"/>
<path d="M24.1 80.3C24.4 80.6 24.8 80.9 25.1 81.2L26.2 82L23.5 85.6L22.3 84.7C21.9 84.4 21.5 84 21.2 83.7L24.1 80.3Z" fill="#010101"/>
<path d="M20.1999 84.8C20.7999 84.2 21.7 84.2 22.3 84.7C23 85.2 23.1 86.1 22.6 86.8C22.1 87.5 21.0999 87.6 20.3999 87C19.6999 86.5 19.6999 85.4 20.1999 84.8Z" fill="#010101"/>
<path d="M15.8 84.8L13.5 82.4L16.9 79.4L19 81.7L15.8 84.8Z" fill="#010101"/>
<path d="M20 80.6C19.4 81.2 18.5 81.2 17.9 80.5C17.3 79.9 17.4 78.9 18 78.4C18.6 77.9 19.6 77.9 20.1 78.5C20.6 79.1 20.6 80 20 80.6Z" fill="#010101"/>
<path d="M11.3 82.1C9.89999 80.3 8.49996 78.5 7.39996 76.5C6.09996 74.6 5.19995 72.5 4.19995 70.4L5.59998 69.8C6.59998 71.8 7.49995 73.8 8.69995 75.7C9.79995 77.6 11.2 79.4 12.5 81.2L11.3 82.1Z" fill="#010101"/>
<path d="M15.1 65.6C15.9 67.2 16.6 68.8 17.5 70.2C18.3 71.7 19.5 73.1 20.5 74.5L19.3 75.4C18.2 73.9 17.1 72.5 16.2 70.9C15.2 69.4 14.5 67.7 13.7 66.1L15.1 65.6Z" fill="#010101"/>
<path d="M17 72.2C17.5 73 18.1 73.6999 18.6 74.3999L15 77.1C14.4 76.3 13.7 75.5 13.2 74.6L17 72.2Z" fill="#010101"/>
<path d="M12 75.4C12.7 75 13.6 75.2 14.1 75.8C14.6 76.5 14.5 77.4 13.8 77.9C13.1 78.4 12.2 78.2 11.6 77.5C11.1 76.9 11.3 75.9 12 75.4Z" fill="#010101"/>
<path d="M7.79999 74.2C7.49999 73.7 7.2 73.2 7 72.7L6.29999 71.2L10.4 69.3L11.1 70.7C11.3 71.2 11.5 71.6 11.8 72L7.79999 74.2Z" fill="#010101"/>
<path d="M13 71.3C12.3 71.7 11.3 71.5 11 70.7C10.6 69.9 10.9 69 11.7 68.7C12.4 68.3 13.3 68.6 13.7 69.3C13.9 70 13.7 70.9 13 71.3Z" fill="#010101"/>
<path d="M4.19995 70.4C3.69995 69.4 3.4 68.3 3 67.2L2.39996 65.6C2.19996 65.1 2.09996 64.5 1.89996 63.9L1 60.6C0.8 59.5 0.6 58.3 0.5 57.2L2 57C2.2 58.1 2.3 59.2 2.5 60.3L3.29999 63.5C3.39999 64 3.59995 64.6 3.69995 65.1L4.29999 66.7C4.69999 67.7 5 68.8 5.5 69.8L4.19995 70.4Z" fill="#010101"/>
<path d="M12.4 55.5L12.8 58.1L13.5 60.6C13.6 61 13.7 61.5 13.8 61.9L14.3 63.1C14.6 63.9 14.9 64.8 15.2 65.5L13.8 66.1C13.4 65.3 13.2 64.4 12.8 63.6L12.3 62.3C12.1 61.9 12.1 61.4 11.9 61L11.2 58.4L10.8 55.7L12.4 55.5Z" fill="#010101"/>
<path d="M12.3 62.4L13.3 64.9L9.09998 66.6L8.09998 63.7L12.3 62.4Z" fill="#010101"/>
<path d="M6.59997 64.2C7.39997 64 8.29999 64.4 8.49999 65.2C8.79999 66 8.39997 66.9 7.59997 67.2C6.79997 67.5 5.99994 67.1 5.69994 66.2C5.39994 65.3 5.79997 64.4 6.59997 64.2Z" fill="#010101"/>
<path d="M2.89996 61.9L2.5 60.3C2.4 59.8 2.29995 59.2 2.19995 58.7L6.59998 57.9C6.69998 58.4 6.69999 58.9 6.79999 59.4L7.19995 60.9L2.89996 61.9Z" fill="#010101"/>
<path d="M8.69993 60.5C7.89993 60.7 7.09995 60.2 6.89995 59.4C6.79995 58.6 7.29996 57.8 8.09996 57.7C8.89996 57.6 9.69997 58.1 9.79997 58.8C9.99997 59.5 9.49993 60.3 8.69993 60.5Z" fill="#010101"/>
<path d="M0.5 57.2L0.299988 55.5L0.199951 53.8L0 50.3L0.199951 46.9L0.299988 45.2L0.5 43.5L2 43.7L1.69995 45.3V47L1.5 50.3L1.69995 53.7V55.3L2 57L0.5 57.2Z" fill="#010101"/>
<path d="M12.4 45.1L12.2 46.4L12.1 47.7L12 50.3L12.1 52.9L12.2 54.3L12.4 55.5L10.9 55.8L10.7 54.4L10.6 53L10.5 50.3L10.6 47.6L10.7 46.2L10.9 44.9L12.4 45.1Z" fill="#010101"/>
<path d="M10.5 51.7L10.7 54.4L6.19995 54.9L6.09998 51.8L10.5 51.7Z" fill="#010101"/>
<path d="M4.59998 51.9C5.39998 51.9 6.09995 52.5 6.19995 53.4C6.19995 54.2 5.59999 55 4.79999 55.1C3.99999 55.2 3.29995 54.5 3.19995 53.6C3.09995 52.7 3.69998 51.9 4.59998 51.9Z" fill="#010101"/>
<path d="M1.59998 48.7L1.69995 45.3L6.19995 45.8L6.09998 48.8L1.59998 48.7Z" fill="#010101"/>
<path d="M7.49997 48.9C6.69997 48.9 5.99995 48.2 6.09995 47.3C6.09995 46.5 6.79992 45.9 7.69992 45.9C8.49992 46 9.19995 46.7 9.09995 47.5C9.09995 48.3 8.39997 48.9 7.49997 48.9Z" fill="#010101"/>
<path d="M0.5 43.5C0.7 42.4 0.8 41.2 1 40.1L1.89996 36.8C2.09996 36.2 2.19996 35.7 2.39996 35.1L3 33.5C3.4 32.4 3.69995 31.3 4.19995 30.3L5.59998 30.9C5.09998 31.9 4.79996 33 4.39996 34L3.79999 35.6C3.59999 36.1 3.49996 36.7 3.39996 37.2L2.59998 40.4C2.39998 41.5 2.29998 42.6 2.09998 43.7L0.5 43.5Z" fill="#010101"/>
<path d="M15.1 35.1C14.7 35.9 14.5 36.7 14.2 37.5L13.7 38.7C13.5 39.1 13.5 39.5 13.4 40L12.7 42.5L12.3 45.1L10.8 44.9L11.2 42.2L11.9 39.6C12 39.2 12.1 38.7 12.3 38.3L12.8 37C13.1 36.2 13.4 35.3 13.8 34.5L15.1 35.1Z" fill="#010101"/>
<path d="M11.6 40.8999L11.3 42.2C11.2 42.6 11.2 43.1 11.1 43.5L6.69995 42.7C6.79995 42.2 6.79996 41.7 6.89996 41.2L7.29999 39.7L11.6 40.8999Z" fill="#010101"/>
<path d="M5.8 39.5C6.6 39.7 7.09997 40.5 6.89997 41.3C6.79997 42.1 5.99996 42.7 5.19996 42.5C4.39996 42.4 3.80001 41.4999 4.00001 40.6999C4.20001 39.7999 5 39.3 5.8 39.5Z" fill="#010101"/>
<path d="M3.79999 35.6L4.89996 32.4L9.09998 34.1L8.09998 36.9L3.79999 35.6Z" fill="#010101"/>
<path d="M9.49999 37.4C8.69999 37.2 8.29997 36.3 8.59997 35.5C8.89997 34.7 9.69999 34.3 10.5 34.6C11.3 34.9 11.7 35.7 11.4 36.5C11.1 37.2 10.3 37.6 9.49999 37.4Z" fill="#010101"/>
<path d="M4.19995 30.3C5.19995 28.2 6.09996 26.1 7.39996 24.2C8.49996 22.2 9.99999 20.4 11.3 18.6L12.5 19.5C11.2 21.3 9.79995 23 8.69995 25C7.49995 26.9 6.59998 28.9 5.59998 30.9L4.19995 30.3Z" fill="#010101"/>
<path d="M20.6 26.1C19.6 27.5 18.4 28.9 17.6 30.4C16.6 31.9 15.9 33.5 15.2 35L13.8 34.4C14.6 32.8 15.3 31.1 16.3 29.6C17.2 28 18.3 26.6 19.4 25.1L20.6 26.1Z" fill="#010101"/>
<path d="M15.6 30.8C15.3 31.2 15.1 31.6 15 32L14.4 33.2L10.3 31.3L11 29.9C11.2 29.4 11.4 29 11.7 28.6L15.6 30.8Z" fill="#010101"/>
<path d="M10.4 27.9C11.1 28.3 11.3 29.2 11 30C10.6 30.7 9.70001 31.1 9.00001 30.7C8.30001 30.3 7.99998 29.4 8.39998 28.6C8.69998 27.8 9.69998 27.5 10.4 27.9Z" fill="#010101"/>
<path d="M9.5 23.6C10.1 22.6 10.8 21.8 11.4 20.9L15 23.6C14.4 24.4 13.7 25.2 13.2 26.1L9.5 23.6Z" fill="#010101"/>
<path d="M14.5 26.9C13.8 26.4 13.6 25.5 14.1 24.8C14.6 24.1 15.5 24 16.2 24.5C16.9 25 17 25.9 16.5 26.5C16.1 27.1 15.2 27.3 14.5 26.9Z" fill="#010101"/>
<path d="M11.3 18.6C12 17.7 12.8 16.9 13.6 16L14.8 14.7L16.1 13.5C17 12.7 17.8 11.9 18.7 11.2L21.4 9.09998L22.3 10.3L19.6 12.3C18.7 13 17.9 13.8 17.1 14.5L15.9 15.6L14.8 16.8C14.1 17.6 13.3 18.4 12.6 19.3L11.3 18.6Z" fill="#010101"/>
<path d="M28.2 19L26.1 20.6C25.4 21.2 24.8 21.8 24.1 22.3L23.1 23.2L22.2 24.2C21.6 24.9 21 25.5 20.5 26.2L19.3 25.3C19.9 24.6 20.5 24 21.1 23.3L22 22.3L23 21.4C23.7 20.8 24.3 20.2 25 19.6L27.2 18L28.2 19Z" fill="#010101"/>
<path d="M22.1 22.2L20.3 24.2L16.9 21.2L19 19L22.1 22.2Z" fill="#010101"/>
<path d="M17.9 17.9C18.5 18.5 18.5 19.5 17.9 20.1C17.3 20.7 16.4 20.8 15.8 20.2C15.2 19.7 15.2 18.7 15.8 18C16.4 17.4 17.3 17.4 17.9 17.9Z" fill="#010101"/>
<path d="M18.2 13.6C18.6 13.2 19 12.8 19.5 12.5L20.8 11.5L23.5 15.1L22.3 16C21.9 16.3 21.5 16.7 21.2 17L18.2 13.6Z" fill="#010101"/>
<path d="M22.1999 18.1C21.6999 17.5 21.6999 16.5 22.3999 16C23.0999 15.5 24 15.6 24.5 16.3C25 17 24.9 17.9 24.3 18.3C23.6 18.8 22.6999 18.7 22.1999 18.1Z" fill="#010101"/>
<path d="M21.3 9.3C25.1 6.7 29.1 4.5 33.5 3L34 4.39999C29.8 5.79999 25.9 8 22.2 10.5L21.3 9.3Z" fill="#010101"/>
<path d="M37.5 14.2C34.2 15.3 31.1 17 28.2 19L27.3 17.8C30.3 15.8 33.5 14 36.9 12.8L37.5 14.2Z" fill="#010101"/>
<path d="M30.8 15.6L28.5 17L26 13.3L28.6 11.7L30.8 15.6Z" fill="#010101"/>
<path d="M27.8 10.4C28.2 11.1 28 12.1 27.2 12.5C26.5 12.9 25.5 12.7 25.1 12C24.6 11.3 24.9 10.4 25.7 9.89997C26.5 9.49997 27.4 9.69997 27.8 10.4Z" fill="#010101"/>
<path d="M29.3 6.3C30.3 5.8 31.3 5.3 32.3 5L33.9 9.2C32.9 9.5 32 9.99999 31.1 10.4L29.3 6.3Z" fill="#010101"/>
<path d="M31.9 11.7C31.5 11 31.9 10.1 32.6 9.69997C33.4 9.29997 34.3 9.79997 34.6 10.5C34.9 11.3 34.5 12.1 33.8 12.4C33.1 12.8 32.3 12.4 31.9 11.7Z" fill="#010101"/>
<path d="M33.5 2.99997L35.1 2.39996C35.6 2.19996 36.2 2.09996 36.8 1.89996L40.1 0.999969C41.2 0.799969 42.4 0.599969 43.5 0.499969L45.2 0.199966L46.9 0.0999756L47 1.59998L45.3 1.69997L43.7 1.89996C42.6 2.09996 41.5 2.19996 40.4 2.39996L37.2 3.19997C36.7 3.29997 36.1 3.49998 35.6 3.59998L34 4.19997L33.5 2.99997Z" fill="#010101"/>
<path d="M47.7 12.1L46.4 12.2L45.1 12.4L42.5 12.8L40 13.5C39.6 13.6 39.1 13.7 38.7 13.8L37.5 14.3L37 12.9L38.3 12.4C38.7 12.2 39.2 12.2 39.6 12L42.2 11.3L44.9 10.9L46.2 10.7L47.6 10.6L47.7 12.1Z" fill="#010101"/>
<path d="M40.9 11.7C40 11.9 39.1 12.1 38.3 12.4L36.9 8.09999C37.9 7.79999 38.8 7.59999 39.8 7.29999L40.9 11.7Z" fill="#010101"/>
<path d="M39.5 5.89995C39.7 6.69995 39.2 7.49995 38.4 7.69995C37.6 7.89996 36.7 7.39996 36.5 6.69995C36.2 5.89996 36.7 5.09996 37.6 4.79996C38.4 4.59996 39.3 5.09995 39.5 5.89995Z" fill="#010101"/>
<path d="M42 2.29999L45.3 1.79999L45.8 6.19998L42.8 6.69998L42 2.29999Z" fill="#010101"/>
<path d="M43 8.19998C42.9 7.39998 43.3999 6.59998 44.1999 6.49998C44.9999 6.39998 45.8 6.89999 45.8 7.79999C45.9 8.59999 45.3 9.39998 44.6 9.49998C43.9 9.59998 43.2 8.99998 43 8.19998Z" fill="#010101"/>
<path d="M46.9 0.199997L50.3 0L53.7 0.199997L55.4 0.300003L57.1 0.600006C58.2 0.800006 59.4 0.900006 60.5 1.10001L60.2 2.60001C59.1 2.40001 58 2.30001 56.9 2.10001L55.3 1.89999L53.6 1.8L50.3 1.60001L47 1.8L46.9 0.199997Z" fill="#010101"/>
<path d="M58.1 12.8L55.5 12.4L54.2 12.2L52.9 12.1L50.3 12L47.7 12.1L47.6 10.6L50.3 10.5L53 10.6L54.4 10.7L55.7 10.9L58.4 11.3L58.1 12.8Z" fill="#010101"/>
<path d="M51.6 10.6L50.3 10.5L48.9 10.6L48.8 6.10001L50.3 6L51.8 6.10001L51.6 10.6Z" fill="#010101"/>
<path d="M51.8 4.60001C51.8 5.40001 51.1 6.1 50.2 6C49.4 6 48.7 5.40001 48.6 4.60001C48.6 3.80001 49.3 3.1 50.2 3C51.2 3.1 51.9 3.80001 51.8 4.60001Z" fill="#010101"/>
<path d="M55.3 1.79999L58.6 2.29999L57.8 6.69998L54.8 6.19998L55.3 1.79999Z" fill="#010101"/>
<path d="M54.6999 7.70001C54.7999 6.90001 55.5 6.3 56.3 6.4C57.1 6.5 57.7 7.30002 57.5 8.10002C57.4 8.90002 56.5999 9.5 55.8999 9.4C55.0999 9.3 54.5999 8.60001 54.6999 7.70001Z" fill="#010101"/>
<path d="M60.5 1.09998L63.8 1.99997C64.4 2.19997 64.9 2.29997 65.5 2.49997L67.1 3.09998C68.2 3.49998 69.3 3.79997 70.3 4.29997L73.4 5.79997L72.7 7.09998L69.7 5.69997C68.7 5.19997 67.6 4.89997 66.6 4.49997L65 3.89996C64.5 3.69996 63.9 3.59997 63.4 3.49997L60.2 2.69997L60.5 1.09998Z" fill="#010101"/>
<path d="M67.9 16.3L65.5 15.2C64.7 14.8 63.9 14.6 63.1 14.3L61.9 13.8C61.5 13.6 61.1 13.6 60.6 13.5L58.1 12.8L58.4 11.3L61 12C61.4 12.1 61.9 12.2 62.3 12.4L63.6 12.9C64.4 13.2 65.3 13.5 66.1 13.9L68.5 15.1L67.9 16.3Z" fill="#010101"/>
<path d="M62.3 12.4C61.4 12.1 60.5 11.9 59.7 11.7L60.8 7.29999C61.8 7.59999 62.8 7.79999 63.7 8.09999L62.3 12.4Z" fill="#010101"/>
<path d="M64.0999 6.69995C63.8999 7.49995 62.9999 7.89996 62.1999 7.69995C61.3999 7.49995 60.8999 6.69995 61.0999 5.89995C61.2999 5.09995 62.1 4.59996 63 4.79996C63.9 4.99996 64.3999 5.89996 64.0999 6.69995Z" fill="#010101"/>
<path d="M68.2 5C69.3 5.3 70.2 5.9 71.2 6.3L69.3 10.4C68.4 9.99999 67.5 9.5 66.5 9.2L68.2 5Z" fill="#010101"/>
<path d="M66 10.5C66.3 9.69995 67.2 9.29995 68 9.69995C68.8 10.1 69.1 11 68.7 11.7C68.3 12.4 67.5 12.7999 66.8 12.3999C66.1 12.0999 65.7 11.3 66 10.5Z" fill="#010101"/>
<path d="M73.4 5.70001C77.4 7.90001 81.3 10.4 84.6 13.6L83.6 14.7C80.4 11.6 76.7 9.10002 72.8 7.00002L73.4 5.70001Z" fill="#010101"/>
<path d="M76.4 22.3C73.9 19.8 70.9 17.9 67.9 16.3L68.6 15C71.8 16.7 74.9 18.7 77.4 21.3L76.4 22.3Z" fill="#010101"/>
<path d="M72.1 17L69.8 15.6L72 11.7L74.6 13.3L72.1 17Z" fill="#010101"/>
<path d="M75.4 12C74.9 12.7 74 12.9 73.3 12.5C72.6 12.1 72.3 11.1 72.7 10.4C73.1 9.70003 74 9.50003 74.8 9.90003C75.6 10.4 75.9 11.4 75.4 12Z" fill="#010101"/>
<path d="M79.7 11.5L81 12.5C81.4 12.8 81.8 13.2 82.3 13.6L79.4 17C79 16.7 78.7 16.3 78.3 16L77.1 15.1L79.7 11.5Z" fill="#010101"/>
<path d="M76.1 16.2C76.6 15.5 77.5 15.4 78.2 15.9C78.9 16.4 78.9 17.4 78.4 18C77.8 18.6 77 18.7 76.4 18.2C75.7 17.8 75.6 16.9 76.1 16.2Z" fill="#010101"/>
<path d="M84.6 13.6L85.9 14.8L87.1 16.1C87.9 17 88.7 17.8 89.4 18.7C90.8 20.5 92.2 22.3 93.3 24.3L92 25.1C90.9 23.2 89.5 21.4 88.2 19.6C87.5 18.7 86.7 17.9 86 17.1L84.9 15.9L83.7 14.8L84.6 13.6Z" fill="#010101"/>
<path d="M83 30.4C82.2 28.9 81 27.5 80 26.1C79.4 25.4 78.8 24.8 78.3 24.1L77.4 23.1L76.4 22.2L77.4 21.1L78.4 22L79.3 23C79.9 23.7 80.5 24.3 81.1 25C82.2 26.5 83.3 27.9 84.2 29.5L83 30.4Z" fill="#010101"/>
<path d="M80.3 24.2L78.4 22.2L81.6 19L83.7 21.2L80.3 24.2Z" fill="#010101"/>
<path d="M84.8 20.3C84.2 20.8 83.2 20.8 82.7 20.2C82.1 19.6 82.2 18.6 82.7 18C83.2 17.4 84.2 17.5 84.8 18.1C85.4 18.7 85.4 19.7 84.8 20.3Z" fill="#010101"/>
<path d="M89.1 20.9C89.7 21.8 90.5 22.6 91 23.6L87.3 26.1C86.8 25.2 86.1 24.5 85.5 23.6L89.1 20.9Z" fill="#010101"/>
<path d="M84.4 24.5C85.1 24 86 24.1 86.5 24.8C87 25.5 86.8 26.4 86.1 26.9C85.4 27.3 84.5 27.2 84 26.6C83.6 25.9 83.7 25 84.4 24.5Z" fill="#010101"/>
<path d="M93.2 24.2C94.5 26.1 95.4 28.2 96.4 30.3C96.9 31.3 97.2 32.4 97.6 33.5L98.2 35.1C98.4 35.6 98.5 36.2 98.7 36.8L97.3 37.2C97.2 36.7 97 36.1 96.9 35.6L96.3 34C95.9 33 95.6 31.9 95.1 30.9C94.1 28.9 93.2 26.9 92 25L93.2 24.2Z" fill="#010101"/>
<path d="M87.2 40C87.1 39.6 87 39.1 86.9 38.7L86.4 37.5C86.1 36.7 85.8 35.8 85.5 35.1C84.7 33.5 84 31.9 83.1 30.5L84.4 29.7C85.4 31.2 86.1 32.9 86.9 34.5C87.3 35.3 87.5 36.2 87.9 37L88.4 38.3C88.6 38.7 88.6 39.2 88.8 39.6L87.2 40Z" fill="#010101"/>
<path d="M86.2 33.2L85.6 32C85.4 31.6 85.2 31.2 85 30.8L88.9 28.6C89.2 29 89.4 29.5 89.6 29.9L90.3 31.3L86.2 33.2Z" fill="#010101"/>
<path d="M91.6 30.7C90.9 31.1 90 30.7 89.6 30C89.3 29.2 89.4999 28.3 90.1999 27.9C90.8999 27.5 91.9 27.8 92.3 28.6C92.7 29.4 92.4 30.3 91.6 30.7Z" fill="#010101"/>
<path d="M95.7 32.4L96.8 35.6L92.5 36.9L91.5 34.1L95.7 32.4Z" fill="#010101"/>
<path d="M90.1 34.6C90.9 34.3 91.7 34.7 92 35.5C92.3 36.3 91.9 37.1 91.1 37.4C90.3 37.6 89.4999 37.3 89.1999 36.5C88.8999 35.8 89.3 34.9 90.1 34.6Z" fill="#010101"/>
<path d="M98.7 36.8L99.6 40.1C99.8 41.2 100 42.4 100.1 43.5L100.4 45.2L100.5 46.9L100.7 50.3H99.2L99 47L98.9 45.3L98.7 43.7C98.5 42.6 98.4 41.5 98.2 40.4L97.4 37.2L98.7 36.8Z" fill="#010101"/>
<path d="M88.6 50.3L88.5 47.7L88.4 46.4L88.2 45.1L87.8 42.5L87.2 40L88.6 39.6L89.3 42.2L89.7 44.9L89.9 46.2L90 47.6L90.1 50.3H88.6Z" fill="#010101"/>
<path d="M89.5 43.6C89.4 43.2 89.4 42.7 89.3 42.3L89 41L93.4 39.9L93.8 41.4C93.9 41.9 94 42.4 94 42.9L89.5 43.6Z" fill="#010101"/>
<path d="M95.3999 42.6C94.5999 42.7 93.7999 42.2 93.6999 41.4C93.4999 40.6 94 39.8 94.8 39.6C95.6 39.4 96.3999 39.9 96.6999 40.8C96.7999 41.6 96.1999 42.4 95.3999 42.6Z" fill="#010101"/>
<path d="M98.8 45.3L99 48.7L94.5 48.8L94.4 45.8L98.8 45.3Z" fill="#010101"/>
<path d="M92.8999 45.9C93.6999 45.8 94.4 46.4 94.5 47.3C94.5 48.1 93.8999 48.8 93.0999 48.9C92.2999 48.9 91.6 48.3 91.5 47.5C91.4 46.7 92.0999 46 92.8999 45.9Z" fill="#010101"/>
</svg>
